<?xml version="1.0" standalone="no"?>
<!DOCTYPE svg PUBLIC "-//W3C//DTD SVG 20010904//EN"
 "http://www.w3.org/TR/2001/REC-SVG-20010904/DTD/svg10.dtd">
<svg version="1.0" xmlns="http://www.w3.org/2000/svg"
 width="435.000000pt" height="286.000000pt" viewBox="0 0 435.000000 286.000000"
 preserveAspectRatio="xMidYMid meet">

<g transform="translate(0.000000,286.000000) scale(0.100000,-0.100000)"
fill="#000000" stroke="none">
<path d="M1856 1955 c-153 -191 -284 -345 -290 -343 -7 2 -70 64 -141 138 -72
74 -137 135 -146 135 -10 0 -221 -234 -485 -535 -257 -294 -516 -590 -576
-658 l-109 -122 207 2 208 3 195 227 c108 124 277 321 376 437 99 116 183 210
187 209 3 -2 71 -74 149 -161 114 -127 144 -156 154 -145 7 7 132 160 278 340
146 179 270 329 275 332 8 5 114 -127 383 -479 29 -38 77 -101 106 -139 l53
-70 -51 -52 c-28 -28 -49 -58 -47 -67 1 -8 93 -110 203 -226 l200 -210 209 -1
208 0 -160 167 c-88 93 -181 192 -207 221 l-48 54 110 110 110 110 318 -331
319 -331 209 0 209 0 -218 228 c-441 459 -827 852 -838 852 -6 0 -80 -69 -164
-152 -131 -131 -155 -151 -165 -138 -7 9 -90 117 -184 240 -95 124 -234 304
-309 400 -75 96 -157 203 -182 237 -26 34 -52 62 -58 63 -5 0 -135 -155 -288
-345z"/>
</g>
</svg>
